<svg xmlns="http://www.w3.org/2000/svg" xmlns:xlink="http://www.w3.org/1999/xlink" xmlns:fi="http://pattern.flaticon.com/" x="0" y="0" width="1920" height="960" viewBox="0 0 1920 960"><rect x="0px" y="0px" width="100%" height="100%" opacity="1" fill="#8295f1"/><defs><path d="m486.339844 338.753906v-18.890625c0-1.132812-.082032-2.261719-.199219-3.378906 1.863281-1.117187 3.59375-2.351563 5.164063-3.710937 6.957031-6.015626 10.628906-13.957032 10.621093-22.964844-.003906-7.707032-2.839843-15.054688-7.742187-20.730469 3.847656-4.570313 6.035156-10.390625 5.921875-16.453125-.199219-10.769531-7.296875-19.949219-16.992188-23.332031 2.011719-4.195313 3.136719-8.890625 3.136719-13.84375v-5.503907c14.367188-1 25.75-13 25.75-27.613281 0-2.113281-.445312-52.308593-39.167969-99.96875-19.679687-24.222656-45.730469-43.40625-77.4375-57.019531-38.351562-16.464844-85.25-24.824219-139.398437-24.84375-68.199219.023438-124.515625 13.210938-167.386719 39.1875-3.550781 2.152344-4.683594 6.769531-2.535156 10.316406 2.152343 3.546875 6.769531 4.683594 10.316406 2.53125 40.496094-24.535156 94.195313-36.988281 159.605469-37.011718 52.097656.019531 97 7.964843 133.472656 23.625 29.449219 12.644531 53.574219 30.371093 71.703125 52.6875 35.398437 43.566406 35.804687 88.601562 35.804687 90.496093 0 6.984375-5.679687 12.664063-12.664062 12.664063h-456.625c-6.984375 0-12.664062-5.679688-12.664062-12.664063 0-1.886719.246093-19.125 8.835937-42.816406 9.394531-25.921875 24.679687-48.464844 45.421875-67 3.09375-2.765625 3.363281-7.515625.597656-10.605469-2.765625-3.09375-7.511718-3.359375-10.605468-.597656-58.597657 52.367188-59.273438 118.242188-59.273438 121.019531 0 14.613281 11.382812 26.613281 25.746094 27.613281v5.503907c0 4.996093 1.148437 9.730469 3.191406 13.953125-3.675781 1.3125-7.0625 3.445312-9.835938 6.269531-4.773437 4.863281-7.332031 11.226563-7.207031 17.910156.105469 5.792969 2.179688 11.210938 5.71875 15.507813-4.898437 5.675781-7.730469 13.023437-7.734375 20.71875-.007812 9.007812 3.664063 16.949218 10.621094 22.964844 1.667969 1.441406 3.519531 2.742187 5.511719 3.910156-.105469 1.054687-.175781 2.113281-.175781 3.179687v18.875c-14.40625.960938-25.835938 12.976563-25.835938 27.621094 0 61.980469 50.425781 112.402344 112.402344 112.402344h287.195312c61.976563 0 112.402344-50.421875 112.402344-112.402344 0-14.582031-11.335938-26.5625-25.660156-27.605469zm-4.859375-37.34375c-6.90625 5.972656-19.566407 8.457032-33.046875 6.484375-9.542969-1.398437-14.566406-4.054687-19.882813-6.871093-1.222656-.644532-2.457031-1.300782-3.746093-1.9375l17.0625-17.367188c2.128906-2.167969 5.09375-3.410156 8.136718-3.410156h24.4375c2.335938 0 4.632813-.316406 6.867188-.945313 3.507812 3.117188 5.59375 7.65625 5.597656 12.457031 0 4.574219-1.824219 8.476563-5.425781 11.589844zm-440.710938-91.386718h430.460938v5.425781c0 5.832031-2.933594 10.988281-7.398438 14.082031-.125.089844-.253906.171875-.382812.253906-.320313.210938-.648438.410156-.980469.597656-.117188.066407-.230469.132813-.34375.195313-.425781.226563-.859375.4375-1.304688.628906-.027343.011719-.050781.023438-.074218.035157-.496094.207031-1.003906.394531-1.523438.554687-.058594.019531-.117187.035156-.175781.050781-.433594.132813-.875.246094-1.324219.339844-.140625.03125-.277344.058594-.417968.085938-.386719.070312-.777344.132812-1.171876.179687-.148437.015625-.292968.035156-.441406.050781-.527344.050782-1.058594.082032-1.597656.082032h-396.191406c-9.445313 0-17.132813-7.6875-17.132813-17.132813zm-10.945312 36.171874c2.042969-2.078124 4.859375-3.273437 7.734375-3.273437h3.648437c4.871094 2.96875 10.585938 4.683594 16.699219 4.683594h396.1875c.667969 0 1.328125-.027344 1.984375-.066407.210937-.011718.417969-.03125.625-.046874.460937-.039063.921875-.085938 1.378906-.144532.222657-.027344.449219-.050781.671875-.082031.585938-.085937 1.167969-.183594 1.742188-.300781.242187-.050782.480468-.109375.722656-.164063.394531-.089843.789062-.183593 1.179688-.289062.296874-.078125.59375-.164063.886718-.25.316406-.09375.628906-.199219.941406-.300781.300782-.097657.597657-.195313.894532-.300782.511718-.191406 1.019531-.390625 1.519531-.601562.300781-.128906.597656-.269532.894531-.40625.28125-.128906.558594-.261719.832032-.398438.292968-.148437.585937-.292968.875-.449218.328124-.175782.652343-.363282.976562-.550782.195312-.113281.394531-.214844.589844-.332031h4.097656c5.511719 0 10.078125 4.480469 10.179688 9.984375.074218 3.835938-2.269532 7.480469-5.964844 9.277344h-.003906c-1.503907.730468-3.078126 1.105468-4.675782 1.105468h-24.441406c-7.042969 0-13.914062 2.878907-18.851562 7.90625l-30.449219 30.992188c-7.257813 7.390625-18.765625 8.390625-27.167969 2.707031-.183594-.125-.363281-.25-.542969-.378906-.46875-.335937-.933593-.6875-1.382812-1.070313 0-.003906-.003907-.007812-.007813-.007812l-39.4375-33.792969c-4.785156-4.097656-10.890625-6.355469-17.191406-6.355469h-277.875c-1.546875 0-3.046875-.355468-4.464844-1.050781h-.003906c-3.453125-1.695312-5.640625-5.121093-5.710938-8.9375-.050781-2.617187.984376-5.140625 2.910157-7.105469zm-4.921875 43.621094c0-4.769531 2.066406-9.285156 5.542968-12.402344 2.15625.59375 4.378907.894532 6.648438.894532h277.875c2.722656 0 5.355469.976562 7.421875 2.742187l31.1875 26.726563c-.625.023437-1.277344.035156-1.953125.035156-9.886719 0-14.382812-2.691406-20.070312-6.097656-6.445313-3.859375-13.75-8.234375-27.792969-8.234375-14.039063 0-21.34375 4.375-27.789063 8.234375-5.6875 3.40625-10.179687 6.097656-20.070312 6.097656s-14.382813-2.691406-20.070313-6.097656c-6.445312-3.859375-13.75-8.234375-27.789062-8.234375-14.042969 0-21.347657 4.375-27.792969 8.234375-5.6875 3.40625-10.179688 6.097656-20.070312 6.097656-9.890626 0-14.382813-2.691406-20.070313-6.097656-6.445313-3.859375-13.75-8.234375-27.792969-8.234375-14.835937 0-22.074218 3.835937-29.074218 7.542969-5.3125 2.8125-10.332032 5.472656-19.875 6.867187-13.480469 1.972656-26.140626-.511719-33.042969-6.480469-3.601563-3.113281-5.425781-7.015625-5.421875-11.59375zm374.695312 173.925782h-287.195312c-53.695313 0-97.378906-43.6875-97.378906-97.382813 0-6.984375 5.679687-12.664063 12.664062-12.664063h336.730469c4.148437 0 7.511719-3.363281 7.511719-7.511718 0-4.148438-3.363282-7.511719-7.511719-7.511719h-323.558594v-16.449219c4.269531.890625 8.816406 1.359375 13.539063 1.359375 3.632812 0 7.367187-.273437 11.148437-.824219 12.105469-1.773437 18.8125-5.324218 24.730469-8.457031 6.113281-3.238281 10.941406-5.796875 22.042968-5.796875 9.886719 0 14.382813 2.691406 20.070313 6.097656 6.445313 3.859376 13.75 8.234376 27.792969 8.234376 14.039062 0 21.34375-4.375 27.789062-8.234376 5.6875-3.40625 10.179688-6.097656 20.070313-6.097656s14.382812 2.691406 20.070312 6.097656c6.445313 3.859376 13.75 8.234376 27.792969 8.234376 14.039062 0 21.34375-4.375 27.789062-8.234376 5.6875-3.40625 10.179688-6.097656 20.070313-6.097656s14.382813 2.691406 20.070313 6.097656c6.445312 3.859376 13.75 8.234376 27.789062 8.234376 6.6875 0 12.296875-.96875 17.6875-3.054688 5.082031 2.515625 10.617188 3.773438 16.152344 3.773438 9.457031 0 18.890625-3.648438 25.957031-10.839844l2.101563-2.136719c2.824218.996094 5.289062 2.289063 8.007812 3.726563 5.917969 3.132812 12.625 6.679687 24.730469 8.453124 3.78125.554688 7.515625.824219 11.148437.824219 4.859375 0 9.53125-.496093 13.910156-1.4375v16.527344h-71.949218c-4.148438 0-7.511719 3.363281-7.511719 7.511719 0 4.148437 3.363281 7.511718 7.511719 7.511718h84.941406c6.984375 0 12.667969 5.679688 12.667969 12.664063-.003907 53.695313-43.6875 97.382813-97.382813 97.382813zm0 0" transform="matrix(0.1171877309679985 0 0 0.1171877309679985 139 244)" id="L1_0"/><path d="m486.339844 338.753906v-18.890625c0-1.132812-.082032-2.261719-.199219-3.378906 1.863281-1.117187 3.59375-2.351563 5.164063-3.710937 6.957031-6.015626 10.628906-13.957032 10.621093-22.964844-.003906-7.707032-2.839843-15.054688-7.742187-20.730469 3.847656-4.570313 6.035156-10.390625 5.921875-16.453125-.199219-10.769531-7.296875-19.949219-16.992188-23.332031 2.011719-4.195313 3.136719-8.890625 3.136719-13.84375v-5.503907c14.367188-1 25.75-13 25.75-27.613281 0-2.113281-.445312-52.308593-39.167969-99.96875-19.679687-24.222656-45.730469-43.40625-77.4375-57.019531-38.351562-16.464844-85.25-24.824219-139.398437-24.84375-68.199219.023438-124.515625 13.210938-167.386719 39.1875-3.550781 2.152344-4.683594 6.769531-2.535156 10.316406 2.152343 3.546875 6.769531 4.683594 10.316406 2.53125 40.496094-24.535156 94.195313-36.988281 159.605469-37.011718 52.097656.019531 97 7.964843 133.472656 23.625 29.449219 12.644531 53.574219 30.371093 71.703125 52.6875 35.398437 43.566406 35.804687 88.601562 35.804687 90.496093 0 6.984375-5.679687 12.664063-12.664062 12.664063h-456.625c-6.984375 0-12.664062-5.679688-12.664062-12.664063 0-1.886719.246093-19.125 8.835937-42.816406 9.394531-25.921875 24.679687-48.464844 45.421875-67 3.09375-2.765625 3.363281-7.515625.597656-10.605469-2.765625-3.09375-7.511718-3.359375-10.605468-.597656-58.597657 52.367188-59.273438 118.242188-59.273438 121.019531 0 14.613281 11.382812 26.613281 25.746094 27.613281v5.503907c0 4.996093 1.148437 9.730469 3.191406 13.953125-3.675781 1.3125-7.0625 3.445312-9.835938 6.269531-4.773437 4.863281-7.332031 11.226563-7.207031 17.910156.105469 5.792969 2.179688 11.210938 5.71875 15.507813-4.898437 5.675781-7.730469 13.023437-7.734375 20.71875-.007812 9.007812 3.664063 16.949218 10.621094 22.964844 1.667969 1.441406 3.519531 2.742187 5.511719 3.910156-.105469 1.054687-.175781 2.113281-.175781 3.179687v18.875c-14.40625.960938-25.835938 12.976563-25.835938 27.621094 0 61.980469 50.425781 112.402344 112.402344 112.402344h287.195312c61.976563 0 112.402344-50.421875 112.402344-112.402344 0-14.582031-11.335938-26.5625-25.660156-27.605469zm-4.859375-37.34375c-6.90625 5.972656-19.566407 8.457032-33.046875 6.484375-9.542969-1.398437-14.566406-4.054687-19.882813-6.871093-1.222656-.644532-2.457031-1.300782-3.746093-1.9375l17.0625-17.367188c2.128906-2.167969 5.09375-3.410156 8.136718-3.410156h24.4375c2.335938 0 4.632813-.316406 6.867188-.945313 3.507812 3.117188 5.59375 7.65625 5.597656 12.457031 0 4.574219-1.824219 8.476563-5.425781 11.589844zm-440.710938-91.386718h430.460938v5.425781c0 5.832031-2.933594 10.988281-7.398438 14.082031-.125.089844-.253906.171875-.382812.253906-.320313.210938-.648438.410156-.980469.597656-.117188.066407-.230469.132813-.34375.195313-.425781.226563-.859375.4375-1.304688.628906-.027343.011719-.050781.023438-.074218.035157-.496094.207031-1.003906.394531-1.523438.554687-.058594.019531-.117187.035156-.175781.050781-.433594.132813-.875.246094-1.324219.339844-.140625.03125-.277344.058594-.417968.085938-.386719.070312-.777344.132812-1.171876.179687-.148437.015625-.292968.035156-.441406.050781-.527344.050782-1.058594.082032-1.597656.082032h-396.191406c-9.445313 0-17.132813-7.6875-17.132813-17.132813zm-10.945312 36.171874c2.042969-2.078124 4.859375-3.273437 7.734375-3.273437h3.648437c4.871094 2.96875 10.585938 4.683594 16.699219 4.683594h396.1875c.667969 0 1.328125-.027344 1.984375-.066407.210937-.011718.417969-.03125.625-.046874.460937-.039063.921875-.085938 1.378906-.144532.222657-.027344.449219-.050781.671875-.082031.585938-.085937 1.167969-.183594 1.742188-.300781.242187-.050782.480468-.109375.722656-.164063.394531-.089843.789062-.183593 1.179688-.289062.296874-.078125.59375-.164063.886718-.25.316406-.09375.628906-.199219.941406-.300781.300782-.097657.597657-.195313.894532-.300782.511718-.191406 1.019531-.390625 1.519531-.601562.300781-.128906.597656-.269532.894531-.40625.28125-.128906.558594-.261719.832032-.398438.292968-.148437.585937-.292968.875-.449218.328124-.175782.652343-.363282.976562-.550782.195312-.113281.394531-.214844.589844-.332031h4.097656c5.511719 0 10.078125 4.480469 10.179688 9.984375.074218 3.835938-2.269532 7.480469-5.964844 9.277344h-.003906c-1.503907.730468-3.078126 1.105468-4.675782 1.105468h-24.441406c-7.042969 0-13.914062 2.878907-18.851562 7.90625l-30.449219 30.992188c-7.257813 7.390625-18.765625 8.390625-27.167969 2.707031-.183594-.125-.363281-.25-.542969-.378906-.46875-.335937-.933593-.6875-1.382812-1.070313 0-.003906-.003907-.007812-.007813-.007812l-39.4375-33.792969c-4.785156-4.097656-10.890625-6.355469-17.191406-6.355469h-277.875c-1.546875 0-3.046875-.355468-4.464844-1.050781h-.003906c-3.453125-1.695312-5.640625-5.121093-5.710938-8.9375-.050781-2.617187.984376-5.140625 2.910157-7.105469zm-4.921875 43.621094c0-4.769531 2.066406-9.285156 5.542968-12.402344 2.15625.59375 4.378907.894532 6.648438.894532h277.875c2.722656 0 5.355469.976562 7.421875 2.742187l31.1875 26.726563c-.625.023437-1.277344.035156-1.953125.035156-9.886719 0-14.382812-2.691406-20.070312-6.097656-6.445313-3.859375-13.75-8.234375-27.792969-8.234375-14.039063 0-21.34375 4.375-27.789063 8.234375-5.6875 3.40625-10.179687 6.097656-20.070312 6.097656s-14.382813-2.691406-20.070313-6.097656c-6.445312-3.859375-13.75-8.234375-27.789062-8.234375-14.042969 0-21.347657 4.375-27.792969 8.234375-5.6875 3.40625-10.179688 6.097656-20.070312 6.097656-9.890626 0-14.382813-2.691406-20.070313-6.097656-6.445313-3.859375-13.75-8.234375-27.792969-8.234375-14.835937 0-22.074218 3.835937-29.074218 7.542969-5.3125 2.8125-10.332032 5.472656-19.875 6.867187-13.480469 1.972656-26.140626-.511719-33.042969-6.480469-3.601563-3.113281-5.425781-7.015625-5.421875-11.59375zm374.695312 173.925782h-287.195312c-53.695313 0-97.378906-43.6875-97.378906-97.382813 0-6.984375 5.679687-12.664063 12.664062-12.664063h336.730469c4.148437 0 7.511719-3.363281 7.511719-7.511718 0-4.148438-3.363282-7.511719-7.511719-7.511719h-323.558594v-16.449219c4.269531.890625 8.816406 1.359375 13.539063 1.359375 3.632812 0 7.367187-.273437 11.148437-.824219 12.105469-1.773437 18.8125-5.324218 24.730469-8.457031 6.113281-3.238281 10.941406-5.796875 22.042968-5.796875 9.886719 0 14.382813 2.691406 20.070313 6.097656 6.445313 3.859376 13.75 8.234376 27.792969 8.234376 14.039062 0 21.34375-4.375 27.789062-8.234376 5.6875-3.40625 10.179688-6.097656 20.070313-6.097656s14.382812 2.691406 20.070312 6.097656c6.445313 3.859376 13.75 8.234376 27.792969 8.234376 14.039062 0 21.34375-4.375 27.789062-8.234376 5.6875-3.40625 10.179688-6.097656 20.070313-6.097656s14.382813 2.691406 20.070313 6.097656c6.445312 3.859376 13.75 8.234376 27.789062 8.234376 6.6875 0 12.296875-.96875 17.6875-3.054688 5.082031 2.515625 10.617188 3.773438 16.152344 3.773438 9.457031 0 18.890625-3.648438 25.957031-10.839844l2.101563-2.136719c2.824218.996094 5.289062 2.289063 8.007812 3.726563 5.917969 3.132812 12.625 6.679687 24.730469 8.453124 3.78125.554688 7.515625.824219 11.148437.824219 4.859375 0 9.53125-.496093 13.910156-1.4375v16.527344h-71.949218c-4.148438 0-7.511719 3.363281-7.511719 7.511719 0 4.148437 3.363281 7.511718 7.511719 7.511718h84.941406c6.984375 0 12.667969 5.679688 12.667969 12.664063-.003907 53.695313-43.6875 97.382813-97.382813 97.382813zm0 0" transform="matrix(0.1171877309679985 0 0 0.1171877309679985 170 26)" id="L1_2"/><path d="m486.339844 338.753906v-18.890625c0-1.132812-.082032-2.261719-.199219-3.378906 1.863281-1.117187 3.59375-2.351563 5.164063-3.710937 6.957031-6.015626 10.628906-13.957032 10.621093-22.964844-.003906-7.707032-2.839843-15.054688-7.742187-20.730469 3.847656-4.570313 6.035156-10.390625 5.921875-16.453125-.199219-10.769531-7.296875-19.949219-16.992188-23.332031 2.011719-4.195313 3.136719-8.890625 3.136719-13.84375v-5.503907c14.367188-1 25.75-13 25.75-27.613281 0-2.113281-.445312-52.308593-39.167969-99.96875-19.679687-24.222656-45.730469-43.40625-77.4375-57.019531-38.351562-16.464844-85.25-24.824219-139.398437-24.84375-68.199219.023438-124.515625 13.210938-167.386719 39.1875-3.550781 2.152344-4.683594 6.769531-2.535156 10.316406 2.152343 3.546875 6.769531 4.683594 10.316406 2.53125 40.496094-24.535156 94.195313-36.988281 159.605469-37.011718 52.097656.019531 97 7.964843 133.472656 23.625 29.449219 12.644531 53.574219 30.371093 71.703125 52.6875 35.398437 43.566406 35.804687 88.601562 35.804687 90.496093 0 6.984375-5.679687 12.664063-12.664062 12.664063h-456.625c-6.984375 0-12.664062-5.679688-12.664062-12.664063 0-1.886719.246093-19.125 8.835937-42.816406 9.394531-25.921875 24.679687-48.464844 45.421875-67 3.09375-2.765625 3.363281-7.515625.597656-10.605469-2.765625-3.09375-7.511718-3.359375-10.605468-.597656-58.597657 52.367188-59.273438 118.242188-59.273438 121.019531 0 14.613281 11.382812 26.613281 25.746094 27.613281v5.503907c0 4.996093 1.148437 9.730469 3.191406 13.953125-3.675781 1.3125-7.0625 3.445312-9.835938 6.269531-4.773437 4.863281-7.332031 11.226563-7.207031 17.910156.105469 5.792969 2.179688 11.210938 5.71875 15.507813-4.898437 5.675781-7.730469 13.023437-7.734375 20.71875-.007812 9.007812 3.664063 16.949218 10.621094 22.964844 1.667969 1.441406 3.519531 2.742187 5.511719 3.910156-.105469 1.054687-.175781 2.113281-.175781 3.179687v18.875c-14.40625.960938-25.835938 12.976563-25.835938 27.621094 0 61.980469 50.425781 112.402344 112.402344 112.402344h287.195312c61.976563 0 112.402344-50.421875 112.402344-112.402344 0-14.582031-11.335938-26.5625-25.660156-27.605469zm-4.859375-37.34375c-6.90625 5.972656-19.566407 8.457032-33.046875 6.484375-9.542969-1.398437-14.566406-4.054687-19.882813-6.871093-1.222656-.644532-2.457031-1.300782-3.746093-1.9375l17.0625-17.367188c2.128906-2.167969 5.09375-3.410156 8.136718-3.410156h24.4375c2.335938 0 4.632813-.316406 6.867188-.945313 3.507812 3.117188 5.59375 7.65625 5.597656 12.457031 0 4.574219-1.824219 8.476563-5.425781 11.589844zm-440.710938-91.386718h430.460938v5.425781c0 5.832031-2.933594 10.988281-7.398438 14.082031-.125.089844-.253906.171875-.382812.253906-.320313.210938-.648438.410156-.980469.597656-.117188.066407-.230469.132813-.34375.195313-.425781.226563-.859375.4375-1.304688.628906-.027343.011719-.050781.023438-.074218.035157-.496094.207031-1.003906.394531-1.523438.554687-.058594.019531-.117187.035156-.175781.050781-.433594.132813-.875.246094-1.324219.339844-.140625.03125-.277344.058594-.417968.085938-.386719.070312-.777344.132812-1.171876.179687-.148437.015625-.292968.035156-.441406.050781-.527344.050782-1.058594.082032-1.597656.082032h-396.191406c-9.445313 0-17.132813-7.6875-17.132813-17.132813zm-10.945312 36.171874c2.042969-2.078124 4.859375-3.273437 7.734375-3.273437h3.648437c4.871094 2.96875 10.585938 4.683594 16.699219 4.683594h396.1875c.667969 0 1.328125-.027344 1.984375-.066407.210937-.011718.417969-.03125.625-.046874.460937-.039063.921875-.085938 1.378906-.144532.222657-.027344.449219-.050781.671875-.082031.585938-.085937 1.167969-.183594 1.742188-.300781.242187-.050782.480468-.109375.722656-.164063.394531-.089843.789062-.183593 1.179688-.289062.296874-.078125.59375-.164063.886718-.25.316406-.09375.628906-.199219.941406-.300781.300782-.097657.597657-.195313.894532-.300782.511718-.191406 1.019531-.390625 1.519531-.601562.300781-.128906.597656-.269532.894531-.40625.28125-.128906.558594-.261719.832032-.398438.292968-.148437.585937-.292968.875-.449218.328124-.175782.652343-.363282.976562-.550782.195312-.113281.394531-.214844.589844-.332031h4.097656c5.511719 0 10.078125 4.480469 10.179688 9.984375.074218 3.835938-2.269532 7.480469-5.964844 9.277344h-.003906c-1.503907.730468-3.078126 1.105468-4.675782 1.105468h-24.441406c-7.042969 0-13.914062 2.878907-18.851562 7.90625l-30.449219 30.992188c-7.257813 7.390625-18.765625 8.390625-27.167969 2.707031-.183594-.125-.363281-.25-.542969-.378906-.46875-.335937-.933593-.6875-1.382812-1.070313 0-.003906-.003907-.007812-.007813-.007812l-39.4375-33.792969c-4.785156-4.097656-10.890625-6.355469-17.191406-6.355469h-277.875c-1.546875 0-3.046875-.355468-4.464844-1.050781h-.003906c-3.453125-1.695312-5.640625-5.121093-5.710938-8.9375-.050781-2.617187.984376-5.140625 2.910157-7.105469zm-4.921875 43.621094c0-4.769531 2.066406-9.285156 5.542968-12.402344 2.15625.59375 4.378907.894532 6.648438.894532h277.875c2.722656 0 5.355469.976562 7.421875 2.742187l31.1875 26.726563c-.625.023437-1.277344.035156-1.953125.035156-9.886719 0-14.382812-2.691406-20.070312-6.097656-6.445313-3.859375-13.75-8.234375-27.792969-8.234375-14.039063 0-21.34375 4.375-27.789063 8.234375-5.6875 3.40625-10.179687 6.097656-20.070312 6.097656s-14.382813-2.691406-20.070313-6.097656c-6.445312-3.859375-13.75-8.234375-27.789062-8.234375-14.042969 0-21.347657 4.375-27.792969 8.234375-5.6875 3.40625-10.179688 6.097656-20.070312 6.097656-9.890626 0-14.382813-2.691406-20.070313-6.097656-6.445313-3.859375-13.75-8.234375-27.792969-8.234375-14.835937 0-22.074218 3.835937-29.074218 7.542969-5.3125 2.8125-10.332032 5.472656-19.875 6.867187-13.480469 1.972656-26.140626-.511719-33.042969-6.480469-3.601563-3.113281-5.425781-7.015625-5.421875-11.59375zm374.695312 173.925782h-287.195312c-53.695313 0-97.378906-43.6875-97.378906-97.382813 0-6.984375 5.679687-12.664063 12.664062-12.664063h336.730469c4.148437 0 7.511719-3.363281 7.511719-7.511718 0-4.148438-3.363282-7.511719-7.511719-7.511719h-323.558594v-16.449219c4.269531.890625 8.816406 1.359375 13.539063 1.359375 3.632812 0 7.367187-.273437 11.148437-.824219 12.105469-1.773437 18.8125-5.324218 24.730469-8.457031 6.113281-3.238281 10.941406-5.796875 22.042968-5.796875 9.886719 0 14.382813 2.691406 20.070313 6.097656 6.445313 3.859376 13.75 8.234376 27.792969 8.234376 14.039062 0 21.34375-4.375 27.789062-8.234376 5.6875-3.40625 10.179688-6.097656 20.070313-6.097656s14.382812 2.691406 20.070312 6.097656c6.445313 3.859376 13.75 8.234376 27.792969 8.234376 14.039062 0 21.34375-4.375 27.789062-8.234376 5.6875-3.40625 10.179688-6.097656 20.070313-6.097656s14.382813 2.691406 20.070313 6.097656c6.445312 3.859376 13.75 8.234376 27.789062 8.234376 6.6875 0 12.296875-.96875 17.6875-3.054688 5.082031 2.515625 10.617188 3.773438 16.152344 3.773438 9.457031 0 18.890625-3.648438 25.957031-10.839844l2.101563-2.136719c2.824218.996094 5.289062 2.289063 8.007812 3.726563 5.917969 3.132812 12.625 6.679687 24.730469 8.453124 3.78125.554688 7.515625.824219 11.148437.824219 4.859375 0 9.53125-.496093 13.910156-1.4375v16.527344h-71.949218c-4.148438 0-7.511719 3.363281-7.511719 7.511719 0 4.148437 3.363281 7.511718 7.511719 7.511718h84.941406c6.984375 0 12.667969 5.679688 12.667969 12.664063-.003907 53.695313-43.6875 97.382813-97.382813 97.382813zm0 0" transform="matrix(0.1171877309679985 0 0 0.1171877309679985 241 130)" id="L1_3"/><g transform="matrix(0.1171875 0 0 0.1171875 -30 27)" id="L1_4"><path d="M502,206.5h-82v-21.167c0-5.523-4.478-10-10-10H194c-5.522,0-10,4.477-10,10c0,5.523,4.478,10,10,10h206v76.666    c0,67.348-35.957,129.942-94.018,164H114.018C55.957,401.942,20,339.347,20,272v-76.666h67c5.522,0,10-4.477,10-10    c0-5.523-4.478-10-10-10H10c-5.522,0-10,4.477-10,10V272c0,37.8,10.16,74.864,29.382,107.183    C42.345,400.98,59.165,420.228,78.862,436H10c-5.522,0-10,4.477-10,10c0,36.393,29.607,66,66,66h312c36.393,0,66-29.607,66-66    c0-5.523-4.478-10-10-10h-92.862c18.129-14.516,33.812-31.983,46.302-51.667h28.227C468.785,384.333,512,341.118,512,288v-71.5    C512,210.977,507.523,206.5,502,206.5z M422.905,456c-4.578,20.572-22.974,36-44.905,36H66c-21.931,0-40.326-15.428-44.905-36    h90.244h197.322H422.905z M420,272v-5.5h32V288c0,20.034-16.299,36.333-36.333,36.333h-2.271C417.761,307.327,420,289.745,420,272    z M492,288c0,42.09-34.243,76.333-76.333,76.333h-17.02c3.193-6.521,6.045-13.197,8.537-20h8.483    C446.73,344.333,472,319.062,472,288v-31.5c0-5.523-4.478-10-10-10h-42v-20h72V288z"/><path d="M219.549,55.343l-5.203-6.533c-7.638-9.588-7.649-22.991-0.027-32.593c3.434-4.326,2.71-10.616-1.616-14.049    c-4.327-3.435-10.616-2.71-14.05,1.616c-13.442,16.936-13.422,40.575,0.049,57.487l5.203,6.533    c9.981,12.53,9.996,30.045,0.036,42.594l-5.332,6.718c-3.434,4.326-2.71,10.616,1.616,14.049c1.839,1.459,4.032,2.168,6.21,2.168    c2.946,0,5.865-1.296,7.84-3.784l5.332-6.718C235.387,102.949,235.364,75.197,219.549,55.343z"/><path d="M274.978,77.827l-5.203-6.532c-7.638-9.589-7.649-22.992-0.027-32.594c3.434-4.326,2.71-10.616-1.616-14.049    c-4.327-3.435-10.616-2.71-14.05,1.616c-13.442,16.936-13.422,40.575,0.049,57.488l5.203,6.533    c9.98,12.531,9.995,30.047,0.035,42.595l-5.331,6.717c-3.434,4.326-2.71,10.616,1.616,14.049c1.839,1.459,4.032,2.167,6.21,2.167    c2.946,0,5.866-1.297,7.84-3.784l5.33-6.717C290.815,125.435,290.792,97.683,274.978,77.827z"/><path d="M164.12,77.828l-5.203-6.532c-7.638-9.588-7.649-22.992-0.028-32.594c3.434-4.326,2.71-10.616-1.616-14.05    c-4.327-3.434-10.616-2.708-14.05,1.616c-13.441,16.936-13.421,40.576,0.05,57.488l5.203,6.533    c9.98,12.531,9.995,30.047,0.036,42.594l-5.332,6.717c-3.434,4.326-2.711,10.616,1.615,14.05c1.839,1.459,4.031,2.168,6.21,2.168    c2.946,0,5.865-1.296,7.839-3.783l5.333-6.718C179.957,125.436,179.934,97.684,164.12,77.828z"/><path d="M150.28,178.26c-1.86-1.86-4.44-2.93-7.07-2.93s-5.21,1.07-7.07,2.93c-1.859,1.87-2.93,4.44-2.93,7.07    s1.07,5.21,2.93,7.08c1.86,1.86,4.44,2.92,7.07,2.92s5.21-1.06,7.07-2.92c1.869-1.87,2.93-4.44,2.93-7.08    C153.21,182.7,152.149,180.12,150.28,178.26z"/><path d="M362,262c-5.522,0-10,4.477-10,10c0,37.119-15.056,73.598-41.308,100.083c-3.888,3.922-3.859,10.254,0.063,14.142    c1.95,1.933,4.495,2.898,7.04,2.898c2.574-0.001,5.148-0.989,7.103-2.962C354.832,355.961,372,314.351,372,272    C372,266.477,367.522,262,362,262z"/><path d="M293.885,399.225c-2.714-4.811-8.813-6.51-13.623-3.797l-0.228,0.129c-4.811,2.714-6.51,8.813-3.797,13.623    c1.838,3.258,5.227,5.089,8.719,5.089c1.664,0,3.352-0.417,4.904-1.292l0.228-0.129    C294.899,410.134,296.598,404.035,293.885,399.225z"/></g><g transform="matrix(0.1171875 0 0 0.1171875 82 149)" id="L1_5"><path d="M502,206.5h-82v-21.167c0-5.523-4.478-10-10-10H194c-5.522,0-10,4.477-10,10c0,5.523,4.478,10,10,10h206v76.666    c0,67.348-35.957,129.942-94.018,164H114.018C55.957,401.942,20,339.347,20,272v-76.666h67c5.522,0,10-4.477,10-10    c0-5.523-4.478-10-10-10H10c-5.522,0-10,4.477-10,10V272c0,37.8,10.16,74.864,29.382,107.183    C42.345,400.98,59.165,420.228,78.862,436H10c-5.522,0-10,4.477-10,10c0,36.393,29.607,66,66,66h312c36.393,0,66-29.607,66-66    c0-5.523-4.478-10-10-10h-92.862c18.129-14.516,33.812-31.983,46.302-51.667h28.227C468.785,384.333,512,341.118,512,288v-71.5    C512,210.977,507.523,206.5,502,206.5z M422.905,456c-4.578,20.572-22.974,36-44.905,36H66c-21.931,0-40.326-15.428-44.905-36    h90.244h197.322H422.905z M420,272v-5.5h32V288c0,20.034-16.299,36.333-36.333,36.333h-2.271C417.761,307.327,420,289.745,420,272    z M492,288c0,42.09-34.243,76.333-76.333,76.333h-17.02c3.193-6.521,6.045-13.197,8.537-20h8.483    C446.73,344.333,472,319.062,472,288v-31.5c0-5.523-4.478-10-10-10h-42v-20h72V288z"/><path d="M219.549,55.343l-5.203-6.533c-7.638-9.588-7.649-22.991-0.027-32.593c3.434-4.326,2.71-10.616-1.616-14.049    c-4.327-3.435-10.616-2.71-14.05,1.616c-13.442,16.936-13.422,40.575,0.049,57.487l5.203,6.533    c9.981,12.53,9.996,30.045,0.036,42.594l-5.332,6.718c-3.434,4.326-2.71,10.616,1.616,14.049c1.839,1.459,4.032,2.168,6.21,2.168    c2.946,0,5.865-1.296,7.84-3.784l5.332-6.718C235.387,102.949,235.364,75.197,219.549,55.343z"/><path d="M274.978,77.827l-5.203-6.532c-7.638-9.589-7.649-22.992-0.027-32.594c3.434-4.326,2.71-10.616-1.616-14.049    c-4.327-3.435-10.616-2.71-14.05,1.616c-13.442,16.936-13.422,40.575,0.049,57.488l5.203,6.533    c9.98,12.531,9.995,30.047,0.035,42.595l-5.331,6.717c-3.434,4.326-2.71,10.616,1.616,14.049c1.839,1.459,4.032,2.167,6.21,2.167    c2.946,0,5.866-1.297,7.84-3.784l5.33-6.717C290.815,125.435,290.792,97.683,274.978,77.827z"/><path d="M164.12,77.828l-5.203-6.532c-7.638-9.588-7.649-22.992-0.028-32.594c3.434-4.326,2.71-10.616-1.616-14.05    c-4.327-3.434-10.616-2.708-14.05,1.616c-13.441,16.936-13.421,40.576,0.05,57.488l5.203,6.533    c9.98,12.531,9.995,30.047,0.036,42.594l-5.332,6.717c-3.434,4.326-2.711,10.616,1.615,14.05c1.839,1.459,4.031,2.168,6.21,2.168    c2.946,0,5.865-1.296,7.839-3.783l5.333-6.718C179.957,125.436,179.934,97.684,164.12,77.828z"/><path d="M150.28,178.26c-1.86-1.86-4.44-2.93-7.07-2.93s-5.21,1.07-7.07,2.93c-1.859,1.87-2.93,4.44-2.93,7.07    s1.07,5.21,2.93,7.08c1.86,1.86,4.44,2.92,7.07,2.92s5.21-1.06,7.07-2.92c1.869-1.87,2.93-4.44,2.93-7.08    C153.21,182.7,152.149,180.12,150.28,178.26z"/><path d="M362,262c-5.522,0-10,4.477-10,10c0,37.119-15.056,73.598-41.308,100.083c-3.888,3.922-3.859,10.254,0.063,14.142    c1.95,1.933,4.495,2.898,7.04,2.898c2.574-0.001,5.148-0.989,7.103-2.962C354.832,355.961,372,314.351,372,272    C372,266.477,367.522,262,362,262z"/><path d="M293.885,399.225c-2.714-4.811-8.813-6.51-13.623-3.797l-0.228,0.129c-4.811,2.714-6.51,8.813-3.797,13.623    c1.838,3.258,5.227,5.089,8.719,5.089c1.664,0,3.352-0.417,4.904-1.292l0.228-0.129    C294.899,410.134,296.598,404.035,293.885,399.225z"/></g><g transform="matrix(0.1171875 0 0 0.1171875 -29 242)" id="L1_6"><path d="M502,206.5h-82v-21.167c0-5.523-4.478-10-10-10H194c-5.522,0-10,4.477-10,10c0,5.523,4.478,10,10,10h206v76.666    c0,67.348-35.957,129.942-94.018,164H114.018C55.957,401.942,20,339.347,20,272v-76.666h67c5.522,0,10-4.477,10-10    c0-5.523-4.478-10-10-10H10c-5.522,0-10,4.477-10,10V272c0,37.8,10.16,74.864,29.382,107.183    C42.345,400.98,59.165,420.228,78.862,436H10c-5.522,0-10,4.477-10,10c0,36.393,29.607,66,66,66h312c36.393,0,66-29.607,66-66    c0-5.523-4.478-10-10-10h-92.862c18.129-14.516,33.812-31.983,46.302-51.667h28.227C468.785,384.333,512,341.118,512,288v-71.5    C512,210.977,507.523,206.5,502,206.5z M422.905,456c-4.578,20.572-22.974,36-44.905,36H66c-21.931,0-40.326-15.428-44.905-36    h90.244h197.322H422.905z M420,272v-5.5h32V288c0,20.034-16.299,36.333-36.333,36.333h-2.271C417.761,307.327,420,289.745,420,272    z M492,288c0,42.09-34.243,76.333-76.333,76.333h-17.02c3.193-6.521,6.045-13.197,8.537-20h8.483    C446.73,344.333,472,319.062,472,288v-31.5c0-5.523-4.478-10-10-10h-42v-20h72V288z"/><path d="M219.549,55.343l-5.203-6.533c-7.638-9.588-7.649-22.991-0.027-32.593c3.434-4.326,2.71-10.616-1.616-14.049    c-4.327-3.435-10.616-2.71-14.05,1.616c-13.442,16.936-13.422,40.575,0.049,57.487l5.203,6.533    c9.981,12.53,9.996,30.045,0.036,42.594l-5.332,6.718c-3.434,4.326-2.71,10.616,1.616,14.049c1.839,1.459,4.032,2.168,6.21,2.168    c2.946,0,5.865-1.296,7.84-3.784l5.332-6.718C235.387,102.949,235.364,75.197,219.549,55.343z"/><path d="M274.978,77.827l-5.203-6.532c-7.638-9.589-7.649-22.992-0.027-32.594c3.434-4.326,2.71-10.616-1.616-14.049    c-4.327-3.435-10.616-2.71-14.05,1.616c-13.442,16.936-13.422,40.575,0.049,57.488l5.203,6.533    c9.98,12.531,9.995,30.047,0.035,42.595l-5.331,6.717c-3.434,4.326-2.71,10.616,1.616,14.049c1.839,1.459,4.032,2.167,6.21,2.167    c2.946,0,5.866-1.297,7.84-3.784l5.33-6.717C290.815,125.435,290.792,97.683,274.978,77.827z"/><path d="M164.12,77.828l-5.203-6.532c-7.638-9.588-7.649-22.992-0.028-32.594c3.434-4.326,2.71-10.616-1.616-14.05    c-4.327-3.434-10.616-2.708-14.05,1.616c-13.441,16.936-13.421,40.576,0.05,57.488l5.203,6.533    c9.98,12.531,9.995,30.047,0.036,42.594l-5.332,6.717c-3.434,4.326-2.711,10.616,1.615,14.05c1.839,1.459,4.031,2.168,6.21,2.168    c2.946,0,5.865-1.296,7.839-3.783l5.333-6.718C179.957,125.436,179.934,97.684,164.12,77.828z"/><path d="M150.28,178.26c-1.86-1.86-4.44-2.93-7.07-2.93s-5.21,1.07-7.07,2.93c-1.859,1.87-2.93,4.44-2.93,7.07    s1.07,5.21,2.93,7.08c1.86,1.86,4.44,2.92,7.07,2.92s5.21-1.06,7.07-2.92c1.869-1.87,2.93-4.44,2.93-7.08    C153.21,182.7,152.149,180.12,150.28,178.26z"/><path d="M362,262c-5.522,0-10,4.477-10,10c0,37.119-15.056,73.598-41.308,100.083c-3.888,3.922-3.859,10.254,0.063,14.142    c1.95,1.933,4.495,2.898,7.04,2.898c2.574-0.001,5.148-0.989,7.103-2.962C354.832,355.961,372,314.351,372,272    C372,266.477,367.522,262,362,262z"/><path d="M293.885,399.225c-2.714-4.811-8.813-6.51-13.623-3.797l-0.228,0.129c-4.811,2.714-6.51,8.813-3.797,13.623    c1.838,3.258,5.227,5.089,8.719,5.089c1.664,0,3.352-0.417,4.904-1.292l0.228-0.129    C294.899,410.134,296.598,404.035,293.885,399.225z"/></g></defs><g fi:class="KUsePattern"><pattern id="pattern_L1_0" width="350" height="350" patternUnits="userSpaceOnUse"><use xlink:href="#L1_0" x="-350" y="-350"/><use xlink:href="#L1_0" x="0" y="-350"/><use xlink:href="#L1_0" x="350" y="-350"/><use xlink:href="#L1_0" x="-350" y="0"/><use xlink:href="#L1_0" x="0" y="0"/><use xlink:href="#L1_0" x="350" y="0"/><use xlink:href="#L1_0" x="-350" y="350"/><use xlink:href="#L1_0" x="0" y="350"/><use xlink:href="#L1_0" x="350" y="350"/></pattern><rect x="0" y="0" width="100%" height="100%" fill="url(#pattern_L1_0)"/></g><g fi:class="KUsePattern"><pattern id="pattern_L1_2" width="350" height="350" patternUnits="userSpaceOnUse"><use xlink:href="#L1_2" x="-350" y="-350"/><use xlink:href="#L1_2" x="0" y="-350"/><use xlink:href="#L1_2" x="350" y="-350"/><use xlink:href="#L1_2" x="-350" y="0"/><use xlink:href="#L1_2" x="0" y="0"/><use xlink:href="#L1_2" x="350" y="0"/><use xlink:href="#L1_2" x="-350" y="350"/><use xlink:href="#L1_2" x="0" y="350"/><use xlink:href="#L1_2" x="350" y="350"/></pattern><rect x="0" y="0" width="100%" height="100%" fill="url(#pattern_L1_2)"/></g><g fi:class="KUsePattern"><pattern id="pattern_L1_3" width="350" height="350" patternUnits="userSpaceOnUse"><use xlink:href="#L1_3" x="-350" y="-350"/><use xlink:href="#L1_3" x="0" y="-350"/><use xlink:href="#L1_3" x="350" y="-350"/><use xlink:href="#L1_3" x="-350" y="0"/><use xlink:href="#L1_3" x="0" y="0"/><use xlink:href="#L1_3" x="350" y="0"/><use xlink:href="#L1_3" x="-350" y="350"/><use xlink:href="#L1_3" x="0" y="350"/><use xlink:href="#L1_3" x="350" y="350"/></pattern><rect x="0" y="0" width="100%" height="100%" fill="url(#pattern_L1_3)"/></g><g fi:class="KUsePattern"><pattern id="pattern_L1_4" width="350" height="350" patternUnits="userSpaceOnUse"><use xlink:href="#L1_4" x="-350" y="-350"/><use xlink:href="#L1_4" x="0" y="-350"/><use xlink:href="#L1_4" x="350" y="-350"/><use xlink:href="#L1_4" x="-350" y="0"/><use xlink:href="#L1_4" x="0" y="0"/><use xlink:href="#L1_4" x="350" y="0"/><use xlink:href="#L1_4" x="-350" y="350"/><use xlink:href="#L1_4" x="0" y="350"/><use xlink:href="#L1_4" x="350" y="350"/></pattern><rect x="0" y="0" width="100%" height="100%" fill="url(#pattern_L1_4)"/></g><g fi:class="KUsePattern"><pattern id="pattern_L1_5" width="350" height="350" patternUnits="userSpaceOnUse"><use xlink:href="#L1_5" x="-350" y="-350"/><use xlink:href="#L1_5" x="0" y="-350"/><use xlink:href="#L1_5" x="350" y="-350"/><use xlink:href="#L1_5" x="-350" y="0"/><use xlink:href="#L1_5" x="0" y="0"/><use xlink:href="#L1_5" x="350" y="0"/><use xlink:href="#L1_5" x="-350" y="350"/><use xlink:href="#L1_5" x="0" y="350"/><use xlink:href="#L1_5" x="350" y="350"/></pattern><rect x="0" y="0" width="100%" height="100%" fill="url(#pattern_L1_5)"/></g><g fi:class="KUsePattern"><pattern id="pattern_L1_6" width="350" height="350" patternUnits="userSpaceOnUse"><use xlink:href="#L1_6" x="-350" y="-350"/><use xlink:href="#L1_6" x="0" y="-350"/><use xlink:href="#L1_6" x="350" y="-350"/><use xlink:href="#L1_6" x="-350" y="0"/><use xlink:href="#L1_6" x="0" y="0"/><use xlink:href="#L1_6" x="350" y="0"/><use xlink:href="#L1_6" x="-350" y="350"/><use xlink:href="#L1_6" x="0" y="350"/><use xlink:href="#L1_6" x="350" y="350"/></pattern><rect x="0" y="0" width="100%" height="100%" fill="url(#pattern_L1_6)"/></g></svg>